<svg xmlns="http://www.w3.org/2000/svg" width="124.308" height="124.308" viewBox="0 0 124.308 124.308">
  <g id="cancel" transform="translate(0 0)">
    <g id="Group_16" data-name="Group 16" transform="translate(0 0)">
      <path id="Path_8" data-name="Path 8" d="M106.1,18.207A62.151,62.151,0,1,0,18.207,106.1,62.151,62.151,0,1,0,106.1,18.207Zm-5,82.9A55.085,55.085,0,0,1,23.2,23.2a55.085,55.085,0,1,1,77.9,77.9Z" transform="translate(0 0)" fill="#272d3b"/>
      <path id="Path_9" data-name="Path 9" d="M184.742,129.965a3.521,3.521,0,0,0-5,0l-22.392,22.392-22.392-22.392a3.533,3.533,0,0,0-5,5l22.392,22.392-22.392,22.392a3.545,3.545,0,0,0,2.485,6.043,3.446,3.446,0,0,0,2.485-1.046l22.392-22.392,22.392,22.392a3.554,3.554,0,0,0,2.485,1.046,3.4,3.4,0,0,0,2.485-1.046,3.521,3.521,0,0,0,0-5l-22.34-22.392,22.392-22.392A3.521,3.521,0,0,0,184.742,129.965Z" transform="translate(-95.199 -95.199)" fill="#272d3b"/>
    </g>
  </g>
</svg>
